<mxfile host="www.draw.io" modified="2019-12-06T16:36:20.847Z" agent="Mozilla/5.0 (Windows NT 10.0; Win64; x64) AppleWebKit/537.36 (KHTML, like Gecko) Chrome/78.0.3904.108 Safari/537.36" etag="hhrOQzjj9R-0niOoy5Fe" version="12.3.7" type="github" pages="1">
  <diagram name="Page-1" id="74e2e168-ea6b-b213-b513-2b3c1d86103e">
    <mxGraphModel dx="1097" dy="547" grid="1" gridSize="10" guides="1" tooltips="1" connect="1" arrows="1" fold="1" page="1" pageScale="1" pageWidth="1100" pageHeight="850" background="#ffffff" math="0" shadow="0">
      <root>
        <mxCell id="0"/>
        <mxCell id="1" parent="0"/>
        <mxCell id="77e6c97f196da883-1" value="MisFinanzas" style="swimlane;html=1;childLayout=stackLayout;startSize=20;rounded=0;shadow=0;labelBackgroundColor=none;strokeWidth=1;fontFamily=Verdana;fontSize=8;align=center;" parent="1" vertex="1">
          <mxGeometry x="70" y="30" width="210" height="760" as="geometry"/>
        </mxCell>
        <mxCell id="rTA4VoWxz73vmhwZtoji-8" value="FrmEntrar.aspx" style="swimlane;html=1;startSize=20;" vertex="1" parent="77e6c97f196da883-1">
          <mxGeometry y="20" width="210" height="740" as="geometry"/>
        </mxCell>
        <mxCell id="rTA4VoWxz73vmhwZtoji-9" style="edgeStyle=orthogonalEdgeStyle;rounded=0;orthogonalLoop=1;jettySize=auto;html=1;entryX=0.5;entryY=0;entryDx=0;entryDy=0;" edge="1" parent="rTA4VoWxz73vmhwZtoji-8" source="rTA4VoWxz73vmhwZtoji-10" target="rTA4VoWxz73vmhwZtoji-11">
          <mxGeometry relative="1" as="geometry"/>
        </mxCell>
        <mxCell id="rTA4VoWxz73vmhwZtoji-10" value="" style="ellipse;whiteSpace=wrap;html=1;aspect=fixed;fillColor=#f8cecc;strokeColor=#b85450;" vertex="1" parent="rTA4VoWxz73vmhwZtoji-8">
          <mxGeometry x="50" y="40" width="40" height="40" as="geometry"/>
        </mxCell>
        <mxCell id="rTA4VoWxz73vmhwZtoji-11" value="Indicar que se debe realizar consulta proveedor" style="rounded=1;whiteSpace=wrap;html=1;" vertex="1" parent="rTA4VoWxz73vmhwZtoji-8">
          <mxGeometry x="10" y="130" width="120" height="60" as="geometry"/>
        </mxCell>
        <mxCell id="rTA4VoWxz73vmhwZtoji-12" value="CrearSesion" style="rounded=1;whiteSpace=wrap;html=1;" vertex="1" parent="rTA4VoWxz73vmhwZtoji-8">
          <mxGeometry x="10" y="260" width="120" height="60" as="geometry"/>
        </mxCell>
        <mxCell id="rTA4VoWxz73vmhwZtoji-13" style="edgeStyle=orthogonalEdgeStyle;rounded=0;orthogonalLoop=1;jettySize=auto;html=1;entryX=0.5;entryY=0;entryDx=0;entryDy=0;" edge="1" parent="rTA4VoWxz73vmhwZtoji-8" source="rTA4VoWxz73vmhwZtoji-11" target="rTA4VoWxz73vmhwZtoji-12">
          <mxGeometry relative="1" as="geometry">
            <mxPoint x="70" y="270" as="targetPoint"/>
          </mxGeometry>
        </mxCell>
        <mxCell id="rTA4VoWxz73vmhwZtoji-14" value="Cross-Cutting" style="swimlane;html=1;childLayout=stackLayout;startSize=20;rounded=0;shadow=0;labelBackgroundColor=none;strokeWidth=1;fontFamily=Verdana;fontSize=8;align=center;" vertex="1" parent="1">
          <mxGeometry x="280" y="30" width="210" height="760" as="geometry"/>
        </mxCell>
        <mxCell id="rTA4VoWxz73vmhwZtoji-15" value="CUsuariosDelegados" style="swimlane;html=1;startSize=20;" vertex="1" parent="rTA4VoWxz73vmhwZtoji-14">
          <mxGeometry y="20" width="210" height="740" as="geometry"/>
        </mxCell>
        <mxCell id="rTA4VoWxz73vmhwZtoji-24" value="" style="edgeStyle=orthogonalEdgeStyle;rounded=0;orthogonalLoop=1;jettySize=auto;html=1;" edge="1" parent="rTA4VoWxz73vmhwZtoji-15" source="rTA4VoWxz73vmhwZtoji-19" target="rTA4VoWxz73vmhwZtoji-23">
          <mxGeometry relative="1" as="geometry"/>
        </mxCell>
        <mxCell id="rTA4VoWxz73vmhwZtoji-19" value="ConsultarRelacion" style="rounded=1;whiteSpace=wrap;html=1;" vertex="1" parent="rTA4VoWxz73vmhwZtoji-15">
          <mxGeometry x="45" y="260" width="120" height="60" as="geometry"/>
        </mxCell>
        <mxCell id="rTA4VoWxz73vmhwZtoji-29" style="edgeStyle=orthogonalEdgeStyle;rounded=0;orthogonalLoop=1;jettySize=auto;html=1;entryX=0.5;entryY=0;entryDx=0;entryDy=0;" edge="1" parent="rTA4VoWxz73vmhwZtoji-15" source="rTA4VoWxz73vmhwZtoji-23" target="rTA4VoWxz73vmhwZtoji-25">
          <mxGeometry relative="1" as="geometry"/>
        </mxCell>
        <mxCell id="rTA4VoWxz73vmhwZtoji-23" value="fProveedorSeve" style="rounded=1;whiteSpace=wrap;html=1;" vertex="1" parent="rTA4VoWxz73vmhwZtoji-15">
          <mxGeometry x="45" y="400" width="120" height="60" as="geometry"/>
        </mxCell>
        <mxCell id="rTA4VoWxz73vmhwZtoji-25" value="Existe cache" style="rhombus;whiteSpace=wrap;html=1;" vertex="1" parent="rTA4VoWxz73vmhwZtoji-15">
          <mxGeometry x="65" y="520" width="80" height="80" as="geometry"/>
        </mxCell>
        <mxCell id="rTA4VoWxz73vmhwZtoji-22" style="edgeStyle=orthogonalEdgeStyle;rounded=0;orthogonalLoop=1;jettySize=auto;html=1;" edge="1" parent="1" source="rTA4VoWxz73vmhwZtoji-12" target="rTA4VoWxz73vmhwZtoji-19">
          <mxGeometry relative="1" as="geometry"/>
        </mxCell>
        <mxCell id="rTA4VoWxz73vmhwZtoji-36" value="Business" style="swimlane;html=1;childLayout=stackLayout;startSize=20;rounded=0;shadow=0;labelBackgroundColor=none;strokeWidth=1;fontFamily=Verdana;fontSize=8;align=center;" vertex="1" parent="1">
          <mxGeometry x="490" y="30" width="210" height="760" as="geometry"/>
        </mxCell>
        <mxCell id="rTA4VoWxz73vmhwZtoji-37" value="Facade" style="swimlane;html=1;startSize=20;" vertex="1" parent="rTA4VoWxz73vmhwZtoji-36">
          <mxGeometry y="20" width="210" height="740" as="geometry"/>
        </mxCell>
        <mxCell id="rTA4VoWxz73vmhwZtoji-39" value="Consultar" style="rounded=1;whiteSpace=wrap;html=1;" vertex="1" parent="rTA4VoWxz73vmhwZtoji-37">
          <mxGeometry x="30" y="580" width="120" height="60" as="geometry"/>
        </mxCell>
      </root>
    </mxGraphModel>
  </diagram>
</mxfile>
